<?xml version="1.0" encoding="UTF-8" standalone="no"?>
<!DOCTYPE svg PUBLIC "-//W3C//DTD SVG 1.1//EN" "http://www.w3.org/Graphics/SVG/1.1/DTD/svg11.dtd">
<svg width="360.00" height="360.00" viewBox="0.00 0.00 2000.00 2000.00" xmlns="http://www.w3.org/2000/svg" xmlns:xlink="http://www.w3.org/1999/xlink">
<g stroke-linecap="round" id="6d1">
<path d="M440.80,68.00 Q1000.00,68.00 1559.20,68.00 Q1932.00,68.00 1932.00,440.80 Q1932.00,1000.00 1932.00,1559.20 Q1932.00,1932.00 1559.20,1932.00 Q1000.00,1932.00 440.80,1932.00 Q68.00,1932.00 68.00,1559.20 Q68.00,1000.00 68.00,440.80 Q68.00,68.00 440.80,68.00 Z" fill="rgb(255,255,255)" stroke="rgb(0, 0, 0)" stroke-width="10.00" stroke-opacity="1.00" stroke-linejoin="round"/>
<path d="M972.20,663.14 C975.93,662.82 995.32,662.20 1003.10,662.20 C1010.91,662.37 1026.58,663.17 1034.35,663.81 C1042.07,664.60 1060.57,667.12 1064.91,668.01 C1072.44,669.62 1087.48,673.33 1094.99,675.43 C1102.49,677.69 1117.34,682.67 1124.64,685.36 C1131.84,688.19 1146.01,694.23 1152.87,697.70 C1159.70,701.28 1173.22,708.91 1179.90,712.96 C1186.53,717.16 1199.47,725.92 1205.76,730.47 C1211.93,735.13 1221.44,742.67 1229.56,750.00 C1235.19,755.30 1246.18,766.31 1251.54,772.02 C1256.80,777.85 1266.89,789.73 1271.72,795.79 C1278.79,805.06 1283.06,811.20 1289.30,821.05 C1293.31,827.68 1300.95,841.27 1304.60,848.22 C1308.09,855.24 1314.59,869.36 1317.61,876.48 C1321.67,886.64 1325.44,898.18 1327.66,905.58 C1329.74,913.06 1333.47,928.23 1335.11,935.91 C1336.59,943.59 1339.05,958.91 1340.04,966.56 C1340.90,974.20 1341.65,989.58 1341.80,997.32 C1341.80,1005.10 1341.31,1020.76 1340.83,1028.58 C1340.19,1036.35 1338.45,1051.73 1337.35,1059.35 C1336.67,1063.74 1332.61,1081.96 1330.67,1089.48 C1328.57,1096.99 1323.89,1111.96 1321.33,1119.34 C1318.64,1126.64 1311.32,1144.61 1309.73,1147.99 C1308.14,1151.37 1298.98,1168.49 1295.09,1175.22 C1291.04,1181.90 1282.51,1195.06 1278.08,1201.47 C1273.53,1207.76 1262.10,1222.53 1259.16,1225.85 C1254.00,1231.56 1243.27,1242.73 1237.69,1248.18 C1231.98,1253.54 1220.25,1263.92 1214.27,1268.89 C1208.21,1273.72 1195.90,1282.96 1189.46,1287.18 C1182.95,1291.30 1169.58,1299.19 1162.73,1302.95 C1155.78,1306.60 1141.72,1313.42 1134.64,1316.59 C1127.52,1319.61 1116.23,1324.07 1105.82,1327.44 C1098.42,1329.66 1083.39,1333.68 1075.77,1335.47 C1068.09,1337.11 1052.75,1339.90 1045.09,1341.05 C1033.52,1342.55 1026.07,1343.18 1014.42,1343.65 C1006.68,1343.80 991.09,1343.63 983.24,1343.31 C975.42,1342.83 959.93,1341.40 952.27,1340.45 C941.43,1338.88 929.56,1336.38 922.04,1334.61 C914.52,1332.67 899.51,1328.31 892.04,1325.89 C884.66,1323.33 870.16,1317.81 863.04,1314.84 C855.99,1311.77 842.30,1304.72 835.51,1300.98 C828.78,1297.09 815.47,1288.84 808.94,1284.51 C802.53,1280.08 790.07,1270.87 784.02,1266.11 C780.56,1263.33 766.81,1250.70 761.27,1245.27 C755.82,1239.69 745.20,1228.15 740.08,1222.25 C735.11,1216.27 723.21,1200.94 721.07,1197.87 C718.94,1194.80 708.69,1178.32 704.81,1171.58 C701.05,1164.73 693.91,1150.76 690.58,1143.72 C687.41,1136.64 680.33,1119.36 678.93,1115.15 C676.56,1107.82 672.26,1092.94 670.32,1085.39 C668.53,1077.77 665.41,1062.41 664.10,1054.75 C662.95,1047.09 661.10,1031.80 660.66,1024.13 C660.35,1016.42 660.20,1000.90 660.37,993.09 C660.69,985.24 661.81,969.65 662.60,961.93 C663.55,954.27 665.33,942.26 667.62,931.56 C669.39,924.04 673.43,909.01 675.69,901.51 C678.11,894.04 683.36,879.36 686.19,872.16 C690.68,861.39 693.86,854.63 699.28,844.30 C703.02,837.51 710.96,824.10 715.16,817.47 C719.49,810.94 728.47,798.24 733.13,792.07 C739.90,783.47 748.00,774.44 753.30,768.81 C758.73,763.27 770.02,752.46 775.85,747.20 C781.75,742.08 793.79,732.28 799.92,727.60 C806.10,723.04 819.05,714.70 825.68,710.69 C832.42,706.81 846.22,699.40 853.24,695.91 C860.28,692.58 874.48,686.39 881.63,683.54 C885.77,681.93 903.58,676.34 911.06,674.26 C918.61,672.32 933.91,668.89 941.59,667.41 C949.25,666.10 968.48,663.45 972.20,663.14 Z" fill="rgb(200, 0, 0)" stroke="none" stroke-width="3.00" stroke-opacity="0.99" stroke-linejoin="round"/>
</g>
</svg>
