<?xml version="1.0" encoding="UTF-8" standalone="no"?>
<!DOCTYPE svg PUBLIC "-//W3C//DTD SVG 1.1//EN" "http://www.w3.org/Graphics/SVG/1.1/DTD/svg11.dtd">
<svg width="360.00" height="360.00" viewBox="0.00 0.00 2000.00 2000.00" xmlns="http://www.w3.org/2000/svg" xmlns:xlink="http://www.w3.org/1999/xlink">
<g stroke-linecap="round" id="6d3">
<path d="M440.80,68.00 Q1000.00,68.00 1559.20,68.00 Q1932.00,68.00 1932.00,440.80 Q1932.00,1000.00 1932.00,1559.20 Q1932.00,1932.00 1559.20,1932.00 Q1000.00,1932.00 440.80,1932.00 Q68.00,1932.00 68.00,1559.20 Q68.00,1000.00 68.00,440.80 Q68.00,68.00 440.80,68.00 Z" fill="rgb(255,255,255)" stroke="rgb(0, 0, 0)" stroke-width="10.00" stroke-opacity="1.00" stroke-linejoin="round"/>
<path d="M1482.94,1300.72 C1489.24,1300.19 1505.52,1300.13 1513.17,1300.61 C1520.77,1301.09 1535.63,1303.10 1542.95,1304.70 C1550.27,1306.38 1564.90,1310.77 1571.99,1313.42 C1580.15,1316.48 1591.58,1321.85 1599.15,1326.17 C1605.72,1329.94 1618.44,1338.39 1624.40,1342.96 C1630.31,1347.57 1641.34,1357.72 1646.57,1363.26 C1651.82,1368.84 1662.17,1381.41 1665.78,1386.59 C1669.39,1391.78 1677.58,1405.85 1680.99,1412.71 C1684.37,1419.53 1690.07,1433.41 1692.34,1440.55 C1694.55,1447.72 1698.06,1462.59 1699.31,1470.06 C1700.74,1478.65 1701.81,1491.24 1701.84,1499.95 C1701.87,1507.52 1700.91,1522.77 1699.94,1530.22 C1698.90,1537.63 1695.62,1552.27 1693.44,1559.57 C1691.23,1566.90 1685.52,1582.15 1682.84,1587.87 C1680.15,1593.58 1672.06,1607.72 1667.83,1614.10 C1663.61,1620.44 1654.43,1632.31 1649.39,1637.84 C1644.28,1643.34 1633.16,1653.82 1627.32,1658.64 C1620.59,1664.17 1610.22,1671.39 1602.70,1675.78 C1596.15,1679.58 1582.47,1686.37 1575.53,1689.26 C1568.59,1692.07 1554.28,1696.55 1546.86,1698.30 C1539.41,1700.06 1523.35,1702.74 1517.06,1703.28 C1510.76,1703.81 1494.48,1703.87 1486.83,1703.39 C1479.23,1702.91 1464.37,1700.90 1457.05,1699.30 C1449.73,1697.62 1435.10,1693.23 1428.01,1690.58 C1419.85,1687.52 1408.42,1682.15 1400.85,1677.83 C1394.28,1674.06 1381.56,1665.61 1375.60,1661.04 C1369.69,1656.43 1358.66,1646.28 1353.43,1640.74 C1348.18,1635.16 1337.83,1622.59 1334.22,1617.41 C1330.61,1612.22 1322.42,1598.15 1319.01,1591.29 C1315.63,1584.47 1309.93,1570.59 1307.66,1563.45 C1305.45,1556.28 1301.94,1541.41 1300.69,1533.94 C1299.26,1525.35 1298.19,1512.76 1298.16,1504.05 C1298.13,1496.48 1299.09,1481.23 1300.06,1473.78 C1301.10,1466.37 1304.38,1451.73 1306.56,1444.43 C1308.77,1437.10 1314.48,1421.85 1317.16,1416.13 C1319.85,1410.42 1327.94,1396.28 1332.17,1389.90 C1336.39,1383.56 1345.57,1371.69 1350.61,1366.16 C1355.72,1360.66 1366.84,1350.18 1372.68,1345.36 C1379.41,1339.83 1389.78,1332.61 1397.30,1328.22 C1403.85,1324.42 1417.53,1317.63 1424.47,1314.74 C1431.41,1311.93 1445.72,1307.45 1453.14,1305.70 C1460.59,1303.94 1476.65,1301.26 1482.94,1300.72 Z" fill="rgb(0,0,0)" stroke="none" stroke-width="3.00" stroke-opacity="0.99" stroke-linejoin="round"/>
<path d="M482.94,300.72 C489.24,300.19 505.52,300.13 513.17,300.61 C520.77,301.09 535.63,303.10 542.95,304.70 C550.27,306.38 564.90,310.77 571.99,313.42 C580.15,316.48 591.58,321.85 599.15,326.17 C605.72,329.94 618.44,338.39 624.40,342.96 C630.31,347.57 641.34,357.72 646.57,363.26 C651.82,368.84 662.17,381.41 665.78,386.59 C669.39,391.78 677.58,405.85 680.99,412.71 C684.37,419.53 690.07,433.41 692.34,440.55 C694.55,447.72 698.06,462.59 699.31,470.06 C700.74,478.65 701.81,491.24 701.84,499.95 C701.87,507.52 700.91,522.77 699.94,530.22 C698.90,537.63 695.62,552.27 693.44,559.57 C691.23,566.90 685.52,582.15 682.84,587.87 C680.15,593.58 672.06,607.72 667.83,614.10 C663.61,620.44 654.43,632.31 649.39,637.84 C644.28,643.34 633.16,653.82 627.32,658.64 C620.59,664.17 610.22,671.39 602.70,675.78 C596.15,679.58 582.47,686.37 575.53,689.26 C568.59,692.07 554.28,696.55 546.86,698.30 C539.41,700.06 523.35,702.74 517.06,703.28 C510.76,703.81 494.48,703.87 486.83,703.39 C479.23,702.91 464.37,700.90 457.05,699.30 C449.73,697.62 435.10,693.23 428.01,690.58 C419.85,687.52 408.42,682.15 400.85,677.83 C394.28,674.06 381.56,665.61 375.60,661.04 C369.69,656.43 358.66,646.28 353.43,640.74 C348.18,635.16 337.83,622.59 334.22,617.41 C330.61,612.22 322.42,598.15 319.01,591.29 C315.63,584.47 309.93,570.59 307.66,563.45 C305.45,556.28 301.94,541.41 300.69,533.94 C299.26,525.35 298.19,512.76 298.16,504.05 C298.13,496.48 299.09,481.23 300.06,473.78 C301.10,466.37 304.38,451.73 306.56,444.43 C308.77,437.10 314.48,421.85 317.16,416.13 C319.85,410.42 327.94,396.28 332.17,389.90 C336.39,383.56 345.57,371.69 350.61,366.16 C355.72,360.66 366.84,350.18 372.68,345.36 C379.41,339.83 389.78,332.61 397.30,328.22 C403.85,324.42 417.53,317.63 424.47,314.74 C431.41,311.93 445.72,307.45 453.14,305.70 C460.59,303.94 476.65,301.26 482.94,300.72 Z" fill="rgb(0,0,0)" stroke="none" stroke-width="3.00" stroke-opacity="0.99" stroke-linejoin="round"/>
<path d="M983.94,801.72 C990.24,801.19 1006.52,801.13 1014.17,801.61 C1021.77,802.09 1036.63,804.10 1043.95,805.70 C1051.27,807.38 1065.90,811.77 1072.99,814.42 C1081.15,817.48 1092.58,822.85 1100.15,827.17 C1106.72,830.94 1119.44,839.39 1125.40,843.96 C1131.31,848.57 1142.34,858.72 1147.57,864.26 C1152.82,869.84 1163.17,882.41 1166.78,887.59 C1170.39,892.78 1178.58,906.85 1181.99,913.71 C1185.37,920.53 1191.07,934.41 1193.34,941.55 C1195.55,948.72 1199.06,963.59 1200.31,971.06 C1201.74,979.65 1202.81,992.24 1202.84,1000.95 C1202.87,1008.52 1201.91,1023.77 1200.94,1031.22 C1199.90,1038.63 1196.62,1053.27 1194.44,1060.57 C1192.23,1067.90 1186.52,1083.15 1183.84,1088.87 C1181.15,1094.58 1173.06,1108.72 1168.83,1115.10 C1164.61,1121.44 1155.43,1133.31 1150.39,1138.84 C1145.28,1144.34 1134.16,1154.82 1128.32,1159.64 C1121.59,1165.17 1111.22,1172.39 1103.70,1176.78 C1097.15,1180.58 1083.47,1187.37 1076.53,1190.26 C1069.59,1193.07 1055.28,1197.55 1047.86,1199.30 C1040.41,1201.06 1024.35,1203.74 1018.06,1204.28 C1011.76,1204.81 995.48,1204.87 987.83,1204.39 C980.23,1203.91 965.37,1201.90 958.05,1200.30 C950.73,1198.62 936.10,1194.23 929.01,1191.58 C920.85,1188.52 909.42,1183.15 901.85,1178.83 C895.28,1175.06 882.56,1166.61 876.60,1162.04 C870.69,1157.43 859.66,1147.28 854.43,1141.74 C849.18,1136.16 838.83,1123.59 835.22,1118.41 C831.61,1113.22 823.42,1099.15 820.01,1092.29 C816.63,1085.47 810.93,1071.59 808.66,1064.45 C806.45,1057.28 802.94,1042.41 801.69,1034.94 C800.26,1026.35 799.19,1013.76 799.16,1005.05 C799.13,997.48 800.09,982.23 801.06,974.78 C802.10,967.37 805.38,952.73 807.56,945.43 C809.77,938.10 815.48,922.85 818.16,917.13 C820.85,911.42 828.94,897.28 833.17,890.90 C837.39,884.56 846.57,872.69 851.61,867.16 C856.72,861.66 867.84,851.18 873.68,846.36 C880.41,840.83 890.78,833.61 898.30,829.22 C904.85,825.42 918.53,818.63 925.47,815.74 C932.41,812.93 946.72,808.45 954.14,806.70 C961.59,804.94 977.65,802.26 983.94,801.72 Z" fill="rgb(0,0,0)" stroke="none" stroke-width="3.00" stroke-opacity="0.99" stroke-linejoin="round"/>
</g>
</svg>
